<svg xmlns="http://www.w3.org/2000/svg" width="40.225" height="41.707" viewBox="0 0 40.225 41.707">
  <path id="Icon_metro-instagram" data-name="Icon metro-instagram" d="M37.832,3.213H10.963a6.824,6.824,0,0,0-6.678,6.924V38a6.824,6.824,0,0,0,6.678,6.924H37.832A6.824,6.824,0,0,0,44.51,38V10.137a6.824,6.824,0,0,0-6.678-6.924ZM17.161,21.46H31.633a8.172,8.172,0,0,1,.424,2.607,7.814,7.814,0,0,1-7.66,7.942,7.814,7.814,0,0,1-7.66-7.942,8.172,8.172,0,0,1,.424-2.607Zm22.32,0V37.1a2.569,2.569,0,0,1-2.514,2.607H11.827A2.569,2.569,0,0,1,9.313,37.1V21.46h3.932a12.265,12.265,0,0,0-.279,2.607A11.661,11.661,0,0,0,24.4,35.919,11.661,11.661,0,0,0,35.828,24.067a12.26,12.26,0,0,0-.279-2.607l3.932,0Zm0-9.125a1.285,1.285,0,0,1-1.257,1.3H35.71a1.285,1.285,0,0,1-1.257-1.3V9.73a1.285,1.285,0,0,1,1.257-1.3h2.514a1.285,1.285,0,0,1,1.257,1.3v2.607Z" transform="translate(-4.285 -3.213)" fill="#fff" opacity="0.85"/>
</svg>
