<svg xmlns="http://www.w3.org/2000/svg" width="40.225" height="41.707" viewBox="0 0 40.225 41.707">
  <path id="Icon_awesome-facebook" data-name="Icon awesome-facebook" d="M41.163,21.918c0-11.59-9-20.98-20.113-20.98S.937,10.328.937,21.918c0,10.472,7.355,19.151,16.97,20.727V27.983H12.8V21.918h5.109V17.3c0-5.258,3-8.162,7.6-8.162a29.712,29.712,0,0,1,4.5.409V14.7H27.47a2.972,2.972,0,0,0-3.277,3.277v3.938h5.578l-.892,6.065H24.193V42.645C33.808,41.069,41.163,32.39,41.163,21.918Z" transform="translate(-0.938 -0.938)" fill="#fff"/>
</svg>
